<svg xmlns="http://www.w3.org/2000/svg" xmlns:xlink="http://www.w3.org/1999/xlink" width="1440" height="680" xmlns:v="https://vecta.io/nano"><defs><path id="A" d="M0 0h1440v680H0z"/><path id="B" d="M21.98 650.635l1878.834.142.007 93.592-1878.834-.142z"/></defs><g fill-rule="evenodd"><mask id="C" fill="#fff"><use xlink:href="#A"/></mask><g mask="url(#C)" fill="#fc0" fill-rule="nonzero"><use xlink:href="#B" transform="matrix(.707107 -.707107 .707107 .707107 -1776.620316 807.106544)"/><use xlink:href="#B" x="263.688" y="0.012" transform="matrix(.707107 -.707107 .707107 .707107 -1699.396746 993.565499)"/><use xlink:href="#B" x="527.386" transform="matrix(.707107 -.707107 .707107 .707107 -1622.152876 1180.024455)"/><use xlink:href="#B" x="791.074" y="0.012" transform="matrix(.707107 -.707107 .707107 .707107 -1544.929306 1366.483409)"/><use xlink:href="#B" x="1054.771" transform="matrix(.707107 -.707107 .707107 .707107 -1467.685436 1552.942365)"/><use xlink:href="#B" x="1318.459" y="0.012" transform="matrix(.707107 -.707107 .707107 .707107 -1390.461866 1739.40132)"/><use xlink:href="#B" x="1582.157" transform="matrix(.707107 -.707107 .707107 .707107 -1313.217996 1925.860276)"/><use xlink:href="#B" x="1845.844" y="0.013" transform="matrix(.707107 -.707107 .707107 .707107 -1235.994426 2112.31923)"/><use xlink:href="#B" x="2109.542" y="0.001" transform="matrix(.707107 -.707107 .707107 .707107 -1158.750556 2298.778186)"/><use xlink:href="#B" x="2373.23" y="0.013" transform="matrix(.707107 -.707107 .707107 .707107 -1081.526986 2485.237141)"/><use xlink:href="#B" x="2636.928" y="0.001" transform="matrix(.707107 -.707107 .707107 .707107 -1004.283116 2671.696097)"/></g></g></svg>